<svg width="25" height="14" viewBox="0 0 25 14" fill="none" xmlns="http://www.w3.org/2000/svg">
<path d="M12.0701 7.54695C11.6662 7.00359 11.0667 6.60344 10.281 6.34648C10.8039 6.11272 11.1926 5.84897 11.463 5.56937C11.9441 5.0645 12.1802 4.3921 12.1802 3.56236C12.1802 2.73261 11.9441 2.05286 11.4718 1.47215C10.6862 0.528637 9.35295 0.075843 7.4702 0H0V13.6591H6.95552C7.74052 13.6591 8.46665 13.5918 9.1415 13.4706C9.81699 13.3501 10.3994 13.1163 10.8888 12.7841C11.3275 12.4971 11.6997 12.1355 11.9859 11.7121C12.4417 11.0714 12.6791 10.3463 12.6696 9.53924C12.6696 8.76213 12.467 8.09766 12.0701 7.54695ZM3.12356 2.41509H6.44907C7.18342 2.41509 7.79117 2.48301 8.2723 2.62621C8.82117 2.82996 9.09972 3.24484 9.09972 3.87931C9.09972 4.44587 8.88891 4.85282 8.47488 5.07922C8.05326 5.30562 7.51325 5.4341 6.83714 5.4341H3.12356V2.41509ZM8.39955 11.0635C8.02794 11.2225 7.50502 11.3199 6.83714 11.3199H3.12356V7.62222H6.88778C7.54681 7.69807 8.06149 7.72807 8.4331 7.87126C9.09149 8.13558 9.42005 8.63309 9.41182 9.34284C9.41182 10.1805 9.0744 10.7612 8.39955 11.0635Z" fill="white"/>
<path d="M22.6251 0.679199H15.957V2.33926H22.6251V0.679199Z" fill="white"/>
<path d="M24.8864 7.36709C24.7515 6.5747 24.4476 5.88023 23.9747 5.28424C23.4518 4.60448 22.801 4.11433 22.0002 3.79738C21.2063 3.48099 20.3118 3.32251 19.3154 3.32251C17.6434 3.32251 16.2849 3.79002 15.2295 4.71825C14.1831 5.64648 13.6602 6.99014 13.6602 8.73283C13.6602 10.5966 14.2426 11.9397 15.4074 12.7633C16.5723 13.5851 17.9144 14 19.4337 14C21.2734 14 22.7086 13.5104 23.7304 12.5369C24.3888 11.9171 24.7515 11.3211 24.8357 10.7178H21.7888C21.6115 11.02 21.4089 11.2385 21.1728 11.4049C20.7505 11.706 20.1928 11.8571 19.5179 11.8571C18.8431 11.8571 18.3284 11.736 17.8726 11.4796C17.1205 11.08 16.7242 10.3403 16.6736 9.35939H24.9965C25.013 8.45323 24.9788 7.81989 24.8864 7.36709ZM16.7578 7.63085C16.8679 6.95222 17.1294 6.45415 17.551 6.06927C17.9733 5.6844 18.5728 5.488 19.3318 5.488C20.0333 5.488 20.6233 5.66912 21.1044 6.03135C21.5779 6.39359 21.8476 6.94486 21.9065 7.63085H16.7578Z" fill="white"/>
</svg>
