<svg width="20" height="20" viewBox="0 0 20 20" fill="none" xmlns="http://www.w3.org/2000/svg">
<path d="M11.5662 10.0069L19.664 1.90357C20.0972 1.47006 20.0972 0.769765 19.664 0.336251C19.2308 -0.0972627 18.531 -0.0972627 18.0978 0.336251L10 8.43963L1.90225 0.325135C1.46904 -0.108378 0.758123 -0.108378 0.32491 0.325135C-0.108303 0.758649 -0.108303 1.47006 0.32491 1.90357L8.42266 10.0069L0.32491 18.1103C-0.108303 18.5438 -0.108303 19.2441 0.32491 19.6776C0.54707 19.9 0.824771 20 1.11358 20C1.40239 20 1.68009 19.8888 1.90225 19.6776L10 11.5743L18.0978 19.6776C18.3199 19.9 18.5976 20 18.8864 20C19.1752 20 19.4529 19.8888 19.6751 19.6776C20.1083 19.2441 20.1083 18.5438 19.6751 18.1103L11.5773 10.0069H11.5662Z" fill="white"/>
</svg>
