<svg width="62" height="44" viewBox="0 0 62 44" fill="none" xmlns="http://www.w3.org/2000/svg">
<path d="M18.4516 16.7101V26.3099C16.6153 23.9074 13.6925 22.5395 10.2698 22.5395C4.80246 22.5395 0 26.8071 0 33.2722C0 39.7374 4.80246 43.9984 10.2698 43.9984C13.6925 43.9984 16.6153 42.6314 18.4516 40.228V43.4601H21.6233V20.3776C20.3227 19.3888 19.2447 18.1464 18.4516 16.7101ZM10.7716 41.1821C6.51331 41.1821 3.08972 38.1148 3.08972 33.2722C3.08972 28.4297 6.51331 25.3165 10.7716 25.3165C14.6535 25.3165 18.4525 28.382 18.4525 33.2722C18.4525 38.1625 14.6545 41.1821 10.7716 41.1821Z" fill="white"/>
<path d="M43.5411 32.7338C43.3317 26.6423 38.9914 22.5394 33.4391 22.5394C27.8869 22.5394 22.793 26.7668 22.793 33.3143C22.793 39.8618 27.7614 43.9984 33.2297 43.9984C37.6974 43.9984 41.1898 41.9208 42.8875 37.9481L40.0213 37.2795C38.5321 40.2073 36.0139 41.2232 33.2297 41.2232C29.6817 41.2232 26.176 38.4883 25.8827 33.8939H43.542V32.7338H43.5411ZM26.0072 31.5326C26.6334 27.513 30.0985 25.3165 33.4391 25.3165C36.7797 25.3165 39.7412 27.513 40.3269 31.5326H26.0081H26.0072Z" fill="white"/>
<path d="M55.8127 32.3574L50.8452 31.2807C48.841 30.8237 47.713 30.0775 47.713 28.4624C47.713 26.5149 49.3418 25.1058 52.2646 25.1058C55.1874 25.1058 57.2727 26.6394 57.6905 28.8762L60.7387 28.2133C59.9871 24.8979 56.9813 22.5356 52.3476 22.5356C47.714 22.5356 44.5422 25.0215 44.5422 28.7105C44.5422 31.5288 46.4624 33.2272 49.8851 33.9332L54.6017 34.9687C56.6908 35.4238 57.9829 36.2112 57.9829 37.9096C57.9829 40.0238 56.0212 41.3908 53.0588 41.3908C49.803 41.3908 47.2971 39.9405 47.0057 37.2467L43.832 37.9518C44.3328 41.9301 48.0903 44.0002 52.8079 44.0002C57.5255 44.0002 61.1132 41.7222 61.1132 37.7027C61.1132 34.5951 58.8185 33.0194 55.8127 32.3565V32.3574Z" fill="white"/>
<path d="M61.1157 0.45813V10.7527C61.1157 17.1139 57.1847 21.3825 51.3325 21.3825C45.4803 21.3825 41.4531 17.1139 41.4531 10.7527V0.45813H44.6108V10.7527C44.6108 15.3668 47.2478 18.3498 51.3316 18.3498C55.4154 18.3498 57.9552 15.3658 57.9552 10.7527V0.45813H61.1147H61.1157Z" fill="white"/>
<path d="M32.6794 0.457849C31.6419 0.157298 30.5375 0 29.3869 0C28.2362 0 27.1045 0.157298 26.0595 0.457849C21.6013 1.73496 18.4512 5.58033 18.4512 10.6494C18.4512 16.9076 23.2517 21.3822 29.3878 21.3822C35.5239 21.3822 40.2829 16.9076 40.2829 10.6494C40.2829 5.58033 37.1046 1.73496 32.6803 0.457849H32.6794ZM29.3869 18.6061C25.1286 18.6061 21.54 15.374 21.54 10.6494C21.54 5.92488 25.1286 2.77612 29.3869 2.77612C33.6451 2.77612 37.1517 5.96702 37.1517 10.6494C37.1517 15.3319 33.6036 18.6061 29.3869 18.6061Z" fill="white"/>
<path d="M16.7842 0.45813L10.9122 13.276L10.9104 13.2779L3.7029 0.45813H0.00390625L0.00579253 0.460939L9.25892 16.8845V16.8864L8.39124 18.7805V18.7824L7.56033 20.5979L7.18402 21.4143C8.16488 21.1578 9.19479 21.0201 10.2737 21.0201C10.4812 21.0201 10.6906 21.0276 10.8924 21.0342L11.5781 19.5389L12.8617 16.7394L12.8636 16.7375L20.3314 0.45813H16.7833H16.7842Z" fill="white"/>
</svg>
